<svg width="74" height="22" viewBox="0 0 74 22" fill="none" xmlns="http://www.w3.org/2000/svg"><rect width="74" height="22" rx="4" fill="#4F7BFF"/><g clip-path="url(#clip0_438_948)"><path d="M46.357 7.17676C48.509 7.17676 50.2503 8.9131 50.2503 11.2839C50.2503 13.6547 48.509 15.3743 46.357 15.3743C45.0592 15.3743 43.8764 14.7232 43.3014 13.6547V18.9639H42.25V7.37711H43.3014V8.9131C43.8599 7.84458 45.0756 7.17676 46.357 7.17676ZM46.2748 14.3559C47.9012 14.3559 49.2154 13.0202 49.2154 11.3006C49.2154 9.56423 47.9012 8.19519 46.2748 8.19519C44.6813 8.19519 43.3014 9.44737 43.3014 11.2505C43.3014 13.1371 44.747 14.3559 46.2748 14.3559Z" fill="white"/><path d="M58.0954 7.37711H59.1468V15.174H58.0954V13.5545C57.5369 14.623 56.3541 15.3743 54.9906 15.3743C52.9043 15.3743 51.1465 13.5879 51.1465 11.2672C51.1465 8.99658 52.8385 7.17676 55.0234 7.17676C56.3377 7.17676 57.5205 7.82789 58.0954 8.89641V7.37711ZM55.122 14.3559C56.7155 14.3559 58.0954 13.0536 58.0954 11.3006C58.0954 9.48076 56.6498 8.19519 55.1056 8.19519C53.4957 8.19519 52.1814 9.59763 52.1814 11.2672C52.1814 12.9534 53.4957 14.3559 55.122 14.3559Z" fill="white"/><path d="M66.532 7.37677H67.6655L62.8522 18.9635H61.7351L63.3122 15.0902L60.1416 7.37677H61.2751L63.8871 13.7545L66.532 7.37677Z" fill="white"/><mask id="mask0_438_948" style="mask-type:luminance" maskUnits="userSpaceOnUse" x="5" y="6" width="9" height="10"><path fill-rule="evenodd" clip-rule="evenodd" d="M5 6.90021H13.4595V15.2607H5V6.90021Z" fill="white"/></mask><g mask="url(#mask0_438_948)"><path fill-rule="evenodd" clip-rule="evenodd" d="M11.4897 6.90021C10.9245 6.90021 10.4229 7.25538 10.2425 7.78233L8.56884 12.677C8.53112 12.7874 8.36572 12.7665 8.35773 12.6492L8.03737 7.78712C8.0046 7.28768 7.58438 6.90021 7.07688 6.90021H5L6.19439 13.8644C6.33266 14.6703 7.04175 15.2607 7.87197 15.2607H8.64824C9.32565 15.2607 9.9384 14.8658 10.2085 14.2539L13.4595 6.90021H11.4897Z" fill="white"/></g><mask id="mask1_438_948" style="mask-type:luminance" maskUnits="userSpaceOnUse" x="12" y="6" width="10" height="10"><path fill-rule="evenodd" clip-rule="evenodd" d="M12.9775 6.47809H21.437V15.2608H12.9775V6.47809Z" fill="white"/></mask><g mask="url(#mask1_438_948)"><path fill-rule="evenodd" clip-rule="evenodd" d="M18.1533 12.2511C17.7178 12.9145 17.2344 13.285 16.7344 13.285C16.2669 13.285 15.88 13.0381 15.88 11.9581C15.88 10.4295 16.3959 8.39165 17.911 8.39165C18.2336 8.39165 18.4431 8.42305 18.7333 8.51523L18.1533 12.2511ZM19.6921 6.657C19.1199 6.53342 18.5502 6.47809 18.0078 6.47809C14.2996 6.47809 12.9775 9.58056 12.9775 11.9581C12.9775 13.9799 13.9292 15.2608 15.815 15.2608C16.9599 15.2608 17.7657 14.6741 18.3464 13.8564C18.5989 14.6223 19.3609 15.1401 20.4789 15.2125L20.8918 12.4977C20.8926 12.4925 20.8931 12.488 20.8937 12.4827L21.4135 9.06052C21.5818 7.95255 20.8328 6.90393 19.6921 6.657Z" fill="white"/></g><mask id="mask2_438_948" style="mask-type:luminance" maskUnits="userSpaceOnUse" x="30" y="6" width="10" height="10"><path fill-rule="evenodd" clip-rule="evenodd" d="M30.7646 6.47809H39.2242V15.2608H30.7646V6.47809Z" fill="white"/></mask><g mask="url(#mask2_438_948)"><path fill-rule="evenodd" clip-rule="evenodd" d="M35.9404 12.2511C35.505 12.9145 35.0215 13.285 34.5215 13.285C34.054 13.285 33.6671 13.0381 33.6671 11.9581C33.6671 10.4295 34.183 8.39165 35.6982 8.39165C36.0208 8.39165 36.2302 8.42305 36.5205 8.51523L35.9404 12.2511ZM37.4793 6.657C36.9071 6.53342 36.3373 6.47809 35.7949 6.47809C32.0867 6.47809 30.7646 9.58056 30.7646 11.9581C30.7646 13.9799 31.7163 15.2608 33.6021 15.2608C34.747 15.2608 35.5528 14.6741 36.1335 13.8564C36.3861 14.6223 37.148 15.1401 38.2661 15.2125L38.679 12.4977C38.6797 12.4925 38.6803 12.488 38.6809 12.4827L39.2006 9.06052C39.369 7.95255 38.6199 6.90393 37.4793 6.657Z" fill="white"/></g><mask id="mask3_438_948" style="mask-type:luminance" maskUnits="userSpaceOnUse" x="21" y="6" width="9" height="10"><path fill-rule="evenodd" clip-rule="evenodd" d="M21.8174 6.47809H29.6942V15.2608H21.8174V6.47809Z" fill="white"/></mask><g mask="url(#mask3_438_948)"><path fill-rule="evenodd" clip-rule="evenodd" d="M26.8529 6.47809H26.3366C24.4265 6.47809 22.8079 7.94129 22.5414 9.90901L21.8174 15.2608H24.4582L25.2442 9.45106C25.3217 8.87971 25.7919 8.45446 26.3467 8.45446C26.8044 8.45446 27.1564 8.8758 27.0926 9.34702L26.2925 15.2608H28.9333L29.666 9.84491C29.9066 8.06677 28.5794 6.47809 26.8529 6.47809Z" fill="white"/></g></g><defs><clipPath id="clip0_438_948"><rect width="64" height="16" fill="white" transform="translate(5 3)"/></clipPath></defs></svg>